<?xml version="1.0" encoding="utf-8"?>
<!-- Generator: Adobe Illustrator 16.0.0, SVG Export Plug-In . SVG Version: 6.00 Build 0)  -->
<!DOCTYPE svg PUBLIC "-//W3C//DTD SVG 1.1//EN" "http://www.w3.org/Graphics/SVG/1.1/DTD/svg11.dtd">
<svg version="1.1" id="Layer_1" xmlns="http://www.w3.org/2000/svg" xmlns:xlink="http://www.w3.org/1999/xlink" x="0px" y="0px"
	 width="520px" height="532px" viewBox="0 0 520 532" enable-background="new 0 0 520 532" xml:space="preserve">
<g>
	<path fill-rule="evenodd" clip-rule="evenodd" d="M209.144,315.395c0.008-0.057,0.017-0.114,0.024-0.172
		c-0.028,0.017-0.057,0.033-0.086,0.05C209.103,315.313,209.124,315.356,209.144,315.395z"/>
	<path fill-rule="evenodd" clip-rule="evenodd" d="M218.751,253.167c-0.16-5.104-0.576-10.201-0.843-15.304
		c-0.24-4.584,0.379-9.042-0.976-13.784c-1.345-4.706-0.578-10.134-0.136-15.193c0.346-3.94,0.862-7.826-0.104-11.694
		c-0.314-1.26-0.985-2.66-1.937-3.49c-2.854-2.493-5.891-4.786-8.943-7.042c-0.716-0.528-1.379-0.922-1.025-1.834
		c0.282-0.726,0.679-1.724,1.273-1.949c1.592-0.606,3.315-0.877,4.991-1.256c1.126-0.253,2.849-0.191,2.649-1.71
		c-0.231-1.755,0.902-2.365,1.68-3.408c0.886-1.187,1.818-2.437,2.294-3.81c1.69-4.881-1.169-9.727-6.02-9.798
		c-2.173-0.031-4.366,1.153-6.543,1.811c-0.637,0.192-1.256,0.688-1.868,0.667c-2.166-0.078-2.801,0.533-2.82,2.827
		c-0.006,0.677-0.141,1.438-0.472,2.013c-1.573,2.731-3.192,5.439-4.883,8.101c-0.816,1.284-1.572,2.928-2.796,3.57
		c-3.571,1.875-7.286,3.552-11.095,4.87c-2.831,0.979-4.731,2.547-5.31,5.42c-0.465,2.312-0.74,4.683-0.85,7.038
		c-0.587,12.699-1.677,25.427,2.24,37.884c0.381,1.209-0.085,2.76-0.397,4.097c-0.575,2.46-1.388,4.864-1.982,7.32
		c-0.301,1.24-0.146,2.608-0.541,3.805c-0.877,2.657-1.078,5.269-0.835,8.085c0.373,4.332,1.623,8.615,0.683,13.071
		c-0.372,1.771,0.087,3.717,0.176,5.583c0.192,4.025,0.484,8.05,0.548,12.077c0.035,2.172-0.599,4.373-0.425,6.52
		c0.234,2.892,1.005,5.737,1.449,8.618c0.244,1.585-0.204,3.466,2.183,3.84c0.196,0.031,0.328,0.595,0.457,0.923
		c0.362,0.926,0.541,1.976,1.094,2.765c1.173,1.672,1.197,3.398,0.937,5.325c-0.564,4.168-0.015,8.258,1.825,12.042
		c0.868,1.786,2.11,3.552,4.456,3.665c1.631,0.079,3.316-0.25,4.889,0.056c1.032,0.201,2.029,0.509,2.309-0.559
		c0.192-0.74-0.293-1.838-0.794-2.55c-2.225-3.158-4.712-6.151-5.348-10.146c-0.318-1.994-0.724-3.975-1.038-5.97
		c-0.047-0.304,0.162-0.665,0.3-0.979c0.585-1.333,1.543-2.613,1.719-3.995c0.535-4.187,1.307-8.449,1.002-12.61
		c-0.561-7.646-0.395-15.188,0.891-22.731c0.271-1.591,0.657-3.297,0.354-4.823c-0.774-3.903,1.307-7.308,1.427-11.017
		c0.008,0.558,0.021,1.115,0.036,1.673c0.005,0.192,0.013,0.385,0.019,0.576c1.466-1.117,2.58-2.577,4.057-2.946
		c0.748-0.374,2.246,0.749,2.995,0.749c2.246,0.375,4.867-1.498,7.114,0.749c0.374-0.749,1.497-1.123,2.246-0.749
		c0.725,0.724,1.796,1.797,1.866,2.206c0.21-0.897,0.62-1.638,1.898-1.882c0.548-0.104,0.979-0.816,1.485-1.27
		c0.62,3-0.466,4.479-3.14,4.277c0.277,1.256,0.56,2.516,0.844,3.777c2.02-0.467,3.699-1.992,4.551-4.192
		c1.672,1.998-1.17,2.862-1.286,4.455c1.956-0.015,3.119-0.968,3.259-3.128C218.771,260.266,218.862,256.708,218.751,253.167z
		 M183.043,215.447c-0.156-0.025-0.313-0.051-0.47-0.076c0.197-2.956,0.394-5.913,0.592-8.868c0.229,0.019,0.457,0.038,0.688,0.058
		C183.582,209.522,183.313,212.485,183.043,215.447z M213.394,252.466c-0.361,0.382-0.271,1.18-0.42,1.777
		c-0.229,0.925-0.483,1.842-0.728,2.763c-0.163-0.015-0.326-0.031-0.489-0.047c-0.06-0.364-0.246-0.764-0.158-1.089
		c1.265-4.683,1.213-9.492-1.143-13.599c-1.848-3.222-1.315-6.801-2.741-9.868c-2.476-5.326-2.029-10.939-2.116-16.488
		c-0.031-1.993,0.874-4.001,1.352-6.003c0.271,0.035,0.543,0.069,0.814,0.104c0.501,2.689,1.13,5.362,1.448,8.073
		c0.168,1.434-0.255,2.93-0.321,4.402c-0.091,2.012-0.518,4.131-0.057,6.023c1.5,6.166,3.335,12.252,5.045,18.366
		C214.418,248.803,215.076,250.691,213.394,252.466z"/>
</g>
<g>
	<path fill-rule="evenodd" clip-rule="evenodd" d="M35.386,421.936c-1.708-1.281-2.987-2.073-4.065-3.081
		c-3.068-2.869-2.58-5.619,0.648-8.273c1.507-1.237,2.926-3.51,3.016-5.378c0.334-6.982-0.063-13.997,0.15-20.988
		c0.113-3.679-1.082-5.331-4.84-4.872c-0.982,0.12-2.012,0.097-2.993-0.046c-2.683-0.39-6.433,1.338-7.05-3.354
		c-0.521-3.964-1.008-7.191,3.722-10.038c5.888-3.544,11.556-8.271,15.624-13.744c2.902-3.904,3.752-9.815,4.228-14.95
		c1.272-13.757,2.495-27.574,2.583-41.375c0.242-38.155-0.105-76.314-0.215-114.472c-0.014-4.909-0.002-9.817-0.002-15.499
		c-2.469-1.609-4.946-0.119-7.021,3.027c-0.823,1.247-1.703,2.519-2.812,3.489c-0.611,0.536-1.989,0.892-2.578,0.554
		c-0.543-0.311-0.757-1.691-0.646-2.54c0.217-1.673,0.759-3.303,1.274-5.389c-3.771,0.906-6.729,1.616-10.756,2.585
		c0.902-1.878,1.09-2.848,1.674-3.384c3.156-2.902,6.561-5.548,9.592-8.571c2.939-2.932,6.551-5.53,4.731-10.959
		c-0.508-1.516,1.712-4.007,2.81-5.979c0.932-1.677,2.917-3.236,2.944-4.873c0.237-14.128,0.136-28.262,0.136-42.936
		c-7.112,0.813-8.803-2.328-7.461-7.914c-2.64-0.362-5.037-1.304-7.137-0.854c-4.436,0.953-6.898-1.285-6.926-4.872
		c-0.045-5.591-3.237-11.035-0.299-16.821c3.174-6.249,4.826-7.589,11.931-7.441c0.829,0.018,1.663-0.001,2.488-0.073
		c0.306-0.026,0.595-0.255,0.823-0.36c1.162-4.479,2.811-8.849,3.292-13.344c0.359-3.357-0.685-6.895-1.286-10.32
		c-0.987-5.636,1.642-8.301,7.172-7.536c3.674,0.509,7.431,0.726,11.137,0.614c7.781-0.232,10.075,2.08,8.922,9.696
		c-0.566,3.743-1.338,7.455-1.736,9.641c4.961,2.73,9.035,5.081,13.225,7.206c1.105,0.561,2.57,0.615,3.859,0.575
		c9.494-0.296,18.988-0.597,28.472-1.103c1.677-0.089,3.604-0.771,4.897-1.82c5.265-4.271,5.622-4.344,11.107,1.07
		c3.778-5.706,7.449-11.331,11.226-16.885c0.772-1.137,1.94-2.004,2.927-2.996c0.931,1.064,2.355,1.992,2.697,3.22
		c0.928,3.344,1.578,6.793,2.002,10.242c0.502,4.094,2.082,6.474,6.691,5.865c2.632-0.347,5.328-0.174,7.984-0.382
		c9.139-0.713,19.184,2.03,26.459-8.251c-0.74-2.979-1.563-7.382-2.945-11.603c-2.199-6.724,3.653-5.434,6.547-6.5
		c4.344-1.603,3.879,2.241,4.176,4.692c0.477,3.919,0.725,7.866,1.197,13.269c1.679-1.996,2.636-2.806,3.161-3.836
		c0.827-1.621,1.232-3.458,2.047-5.087c4.773-9.548,11.137-10.278,18.127-2.229c2.129,2.451,1.882,3.742-1.22,5.111
		c-3.132,1.383-6.338,3.074-8.798,5.388c-3.278,3.083-1.653,7.264,2.905,7.801c5.809,0.685,11.59,1.203,15.146-5.371
		c1.689-3.123,4.689-5.689,8.699-3.98c2.689,1.146,5.982,2.714,7.111,5.02c0.729,1.491-1.965,4.656-3.238,7.309
		c-0.178-0.046,0.67,0.414,1.465,0.336c8.236-0.818,16.449-1.997,24.703-2.409c2.045-0.102,5.217,1.687,6.146,3.493
		c3.902,7.58,2.35,15.934,2.102,24.019c-0.021,0.731-2.838,2.016-4.303,1.944c-4.477-0.219-8.922-1.396-13.387-1.446
		c-17.939-0.202-35.881-0.198-53.82-0.088c-4.596,0.028-7.938,3.763-7.944,8.206c-0.021,15.467-0.009,30.933-0.009,46.682
		c4.043-1.067,8.266-4.263,10.44,2.058c0.154,0.447,2.201,0.129,3.319,0.383c2.835,0.646,5.643,1.415,8.334,3.109
		c-6.031,3.175-13.036-2.84-18.816,3.201c7.809,5.09,12.994,12.293,18.06,19.96c8.001,12.108-1.985,27.561-11.763,30.529
		c-4.957,1.505-10.451,2.343-15.577,1.932c-8.647-0.694-12.915-6.125-13.808-14.852c-0.699-6.847,0.709-13.216,3.485-19.352
		c1.98-4.375,4.421-8.551,6.254-12.982c1.419-3.434,2.473-7.082,3.093-10.736c0.141-0.824-2.084-2.762-3.414-2.976
		c-2.92-0.47-5.972-0.042-8.951-0.25c-0.889-0.062-1.716-1.017-2.57-1.563c0.77-0.689,1.557-1.991,2.307-1.97
		c5.288,0.153,10.568,0.577,16.246,0.94c0.002-0.039,0.145-1.455,0.15-2.872c0.051-13.665,0.096-27.329,0.104-40.994
		c0.002-4.436-3.4-8.305-7.887-8.241c-17.493,0.245-34.988,0.61-52.467,1.293c-2.082,0.081-4.396,2.068-6.043,3.728
		c-3.395,3.419-7.048,5.345-12.031,4.654c-1.331-0.185-3.344,0.503-4.195,1.508c-10.762,12.715-21.428,25.514-31.913,38.457
		c-0.895,1.104-0.929,3.66-0.31,5.085c1.486,3.431,0.709,6.03-1.52,8.721c-0.908,1.097-1.873,2.784-1.695,4.045
		c1.861,13.18,2.307,26.868,6.416,39.337c4.494,13.634,3.344,26.961,2.497,40.367c-2.092,33.084-5.087,66.11-7.718,99.16
		c-0.142,1.779-0.276,3.561-0.475,6.126c2.471,0,4.406-0.001,6.342,0c66.49,0.003,132.982,0.054,199.473-0.088
		c4.721-0.01,7.883,1.282,10.191,5.409c2.029,3.625,4.639,6.921,6.801,10.479c5.809,9.564,13.5,17.445,21.674,24.965
		c2.492,2.292,4.189,5.428,6.535,7.909c0.967,1.024,2.652,1.818,4.059,1.901c5.984,0.353,12.043-0.031,17.967,0.707
		c4.109,0.512,8.494,1.685,11.979,3.827c11.773,7.239,23.119,15.17,34.818,22.53c2.523,1.587,5.816,2.53,8.809,2.675
		c8.148,0.394,16.326,0.315,24.49,0.198c4.865-0.069,8.912,0.714,13.191,3.898c8.258,6.145,17.389,11.119,26.188,16.53
		c12.195,7.5,24.414,14.963,36.629,22.428c2.969,1.814,3.717,3.39,1.926,7.208c-2.711,5.771-4.152,12.222-5.527,18.516
		c-1.453,6.662-2.236,13.474-3.238,20.231c-0.549,3.695-1.838,4.997-6.236,4.738c-14.951-0.878-29.953-0.983-44.938-1.217
		c-6.66-0.104-13.367-0.226-19.986,0.383c-23.506,2.159-47.004-1.313-70.508,0.16c-9.799,0.614-19.645,0.442-29.461,0.818
		c-2.973,0.114-4.648-0.681-6.385-3.392c-5.65-8.827-11.811-17.33-17.822-25.923c-0.824-1.179-1.924-2.165-4.045-4.515
		c-0.291,5.329-0.625,9.176-0.686,13.027c-0.09,5.827-0.129,11.663,0.074,17.486c0.129,3.679-0.691,5.494-4.992,5.304
		c-13.064-0.579-12.902-0.411-12.029-13.35c2.324-34.411,4.488-68.834,6.707-103.252c0.063-0.975,0.008-1.955,0.008-3.482
		c-10,0-19.721,0-29.82,0c-0.086,1.14-0.246,2.407-0.268,3.677c-0.305,17.659-0.547,35.319-0.924,52.977
		c-0.068,3.236-0.588,6.583-4.949,6.795c-3.387,0.165-5.719-0.539-5.467-4.979c1.018-17.778,1.748-35.573,2.59-53.362
		c0.076-1.635,0.184-3.269,0.307-5.422c-2.318-0.208-4.248-0.512-6.182-0.537c-46.657-0.6-93.314-1.135-139.969-1.812
		c-3.658-0.053-5.502,1.191-7.359,4.408c-3.984,6.897-8.78,13.322-13.132,20.015c-2.722,4.186-5.511,8.368-7.731,12.821
		c-1.066,2.137-0.855,4.9-1.28,7.37c-0.298,1.736-0.103,4.273-1.153,5.033c-3.467,2.506-2.92,5.693-2.416,8.979
		c2.629,17.113,5.311,34.219,7.967,51.328c0.307,1.973,0.656,3.944,0.836,5.93c0.288,3.178-1.09,4.925-4.395,5.451
		c-2.744,0.438-5.431,1.333-8.086,2.199c-5.41,1.765-10.557,2.617-15.642-1.297c-1.667-1.283-4.452-1.966-6.546-1.667
		c-4.44,0.633-5.717-1.504-5.951-5.207c-0.665-10.472-1.402-20.938-1.932-31.417c-0.327-6.488-0.383-12.993-0.443-19.491
		c-0.023-2.48-0.285-4.216-3.207-5.257c-3.819-1.361-4.704-4.552-2.673-8.131C31.313,428.085,33.287,425.236,35.386,421.936z
		 M179.654,168.707c-0.056,14.297,4.95,18.803,16.986,17.45c2.137-0.239,4.285-0.571,6.361-1.116
		c8.402-2.205,15.736-13.871,12.783-21.425c-3.618-9.262-9.486-17.187-18.186-22.351c-1.641-0.974-6.15-0.422-6.818,0.802
		C185.813,151.157,180.246,160.131,179.654,168.707z M88.637,76.591c-4.771,0.341-9.315-0.321-12.912,1.223
		c-3.063,1.314-6.854,5.008-7.114,7.935c-0.563,6.328,0.722,12.87,1.663,19.265c0.582,3.953,4.738,5.141,7.35,2.165
		C85.063,98.7,92.352,90.089,99.602,81.45c0.745-0.889,1.5-2.942,1.096-3.375c-0.828-0.884-2.42-1.336-3.734-1.423
		C93.99,76.457,90.995,76.591,88.637,76.591z M53.448,174.298c-0.662-0.017-1.324-0.033-1.986-0.05
		c-1.205,56.367,1.968,112.84-2.942,169.304c1.749-1.986,3.088-4.137,3.281-6.386c0.915-10.59,1.876-21.198,2.121-31.816
		c0.221-9.625-2.004-19.534-0.411-28.85c2.981-17.438,1.846-34.754,1.433-52.144c-0.353-14.788-0.993-29.57-1.486-44.355
		C53.394,178.102,53.448,176.199,53.448,174.298z M46.018,427.211c-0.607-0.169-1.215-0.338-1.823-0.507
		c-1.576,2.97-4.533,5.953-4.505,8.907c0.184,18.934,1.023,37.861,1.643,56.792c0.087,2.665,1.363,3.703,4.102,3.765
		c4.359,0.099,5.943-1.765,5.617-6.029c-1.25-16.389-2.328-32.79-3.555-49.18C47.152,436.365,46.519,431.793,46.018,427.211z
		 M114.08,54.979c-4.174-3.471-28.571-3.313-33.59,0.218C84.22,59.165,109.352,59.002,114.08,54.979z M81.452,381.223
		c-0.249-0.658-0.499-1.316-0.748-1.975c-4.048,0.704-9.386,0.063-11.844,2.423c-3.813,3.659-2.991,9.591-2.284,14.716
		c0.541,0.273,1.082,0.548,1.623,0.822C72.617,391.88,77.034,386.551,81.452,381.223z M163.957,54.824
		c-4.338-5.381-26.46-3.803-30.471,1.474C143.997,55.79,153.978,55.308,163.957,54.824z M50.063,92.742c0,11.557,0,23.114,0,34.672
		C54.586,115.775,52.455,104.281,50.063,92.742z M50.18,45.794c2.317-6.986,0.127-16.487-4.434-19.229
		C44.826,34.347,47.247,44.846,50.18,45.794z M41.625,400.176c-0.497,0.106-0.995,0.214-1.493,0.321
		c-0.206,2.554-0.411,5.106-0.661,8.218c1.905-0.158,3.236-0.269,5.432-0.45C43.625,405.11,42.625,402.643,41.625,400.176z"/>
</g>
</svg>
